<mxfile host="drawio-plugin" modified="2021-09-30T17:17:51.306Z" agent="5.0 (Windows NT 6.2; Win64; x64) AppleWebKit/537.36 (KHTML, like Gecko) Chrome/87.0.4280.141 Safari/537.36" etag="pANraKN3qzL0BStboh7O" version="14.7.4" type="embed" pages="3"><diagram id="OPQfJb3W-AFvO27fyZCW" name="Import Flow"><mxGraphModel dx="2463" dy="1096" grid="1" gridSize="10" guides="1" tooltips="1" connect="1" arrows="1" fold="1" page="0" pageScale="1" pageWidth="850" pageHeight="1100" math="0" shadow="0"><root><mxCell id="0"/><mxCell id="1" parent="0"/><mxCell id="pE6p8I3EJ8BsJt--rB1M-7" style="edgeStyle=orthogonalEdgeStyle;rounded=0;orthogonalLoop=1;jettySize=auto;html=1;exitX=1;exitY=0.5;exitDx=0;exitDy=0;entryX=0;entryY=0.5;entryDx=0;entryDy=0;" parent="1" source="pE6p8I3EJ8BsJt--rB1M-1" target="pE6p8I3EJ8BsJt--rB1M-6" edge="1"><mxGeometry relative="1" as="geometry"/></mxCell><mxCell id="pE6p8I3EJ8BsJt--rB1M-1" value="FileLoader" style="rounded=0;whiteSpace=wrap;html=1;" parent="1" vertex="1"><mxGeometry x="-290" y="400" width="120" height="60" as="geometry"/></mxCell><mxCell id="pE6p8I3EJ8BsJt--rB1M-9" style="edgeStyle=orthogonalEdgeStyle;rounded=0;orthogonalLoop=1;jettySize=auto;html=1;exitX=1;exitY=0.5;exitDx=0;exitDy=0;" parent="1" source="pE6p8I3EJ8BsJt--rB1M-3" target="pE6p8I3EJ8BsJt--rB1M-5" edge="1"><mxGeometry relative="1" as="geometry"/></mxCell><mxCell id="pE6p8I3EJ8BsJt--rB1M-3" value="DataFile" style="rounded=0;whiteSpace=wrap;html=1;" parent="1" vertex="1"><mxGeometry x="-290" y="880" width="120" height="60" as="geometry"/></mxCell><mxCell id="pE6p8I3EJ8BsJt--rB1M-4" value="DataKey" style="rounded=0;whiteSpace=wrap;html=1;" parent="1" vertex="1"><mxGeometry x="120" y="880" width="120" height="60" as="geometry"/></mxCell><mxCell id="pE6p8I3EJ8BsJt--rB1M-10" style="edgeStyle=orthogonalEdgeStyle;rounded=0;orthogonalLoop=1;jettySize=auto;html=1;exitX=1;exitY=0.5;exitDx=0;exitDy=0;entryX=0;entryY=0.5;entryDx=0;entryDy=0;" parent="1" source="pE6p8I3EJ8BsJt--rB1M-5" target="pE6p8I3EJ8BsJt--rB1M-4" edge="1"><mxGeometry relative="1" as="geometry"/></mxCell><mxCell id="pE6p8I3EJ8BsJt--rB1M-5" value="DataKeyCollection" style="rounded=0;whiteSpace=wrap;html=1;" parent="1" vertex="1"><mxGeometry x="-85" y="880" width="120" height="60" as="geometry"/></mxCell><mxCell id="pE6p8I3EJ8BsJt--rB1M-14" style="edgeStyle=orthogonalEdgeStyle;rounded=0;orthogonalLoop=1;jettySize=auto;html=1;exitX=1;exitY=0.5;exitDx=0;exitDy=0;entryX=0;entryY=0.5;entryDx=0;entryDy=0;" parent="1" source="pE6p8I3EJ8BsJt--rB1M-6" target="pE6p8I3EJ8BsJt--rB1M-11" edge="1"><mxGeometry relative="1" as="geometry"/></mxCell><mxCell id="pE6p8I3EJ8BsJt--rB1M-15" style="edgeStyle=orthogonalEdgeStyle;rounded=0;orthogonalLoop=1;jettySize=auto;html=1;exitX=1;exitY=0.5;exitDx=0;exitDy=0;entryX=0;entryY=0.5;entryDx=0;entryDy=0;" parent="1" source="pE6p8I3EJ8BsJt--rB1M-6" target="pE6p8I3EJ8BsJt--rB1M-12" edge="1"><mxGeometry relative="1" as="geometry"/></mxCell><mxCell id="pE6p8I3EJ8BsJt--rB1M-16" style="edgeStyle=orthogonalEdgeStyle;rounded=0;orthogonalLoop=1;jettySize=auto;html=1;exitX=1;exitY=0.5;exitDx=0;exitDy=0;entryX=0;entryY=0.5;entryDx=0;entryDy=0;" parent="1" source="pE6p8I3EJ8BsJt--rB1M-6" target="pE6p8I3EJ8BsJt--rB1M-13" edge="1"><mxGeometry relative="1" as="geometry"/></mxCell><mxCell id="pE6p8I3EJ8BsJt--rB1M-6" value="«interface»&lt;br&gt;&lt;b&gt;FileParser&lt;/b&gt;" style="html=1;" parent="1" vertex="1"><mxGeometry x="-80" y="405" width="110" height="50" as="geometry"/></mxCell><mxCell id="pE6p8I3EJ8BsJt--rB1M-17" style="edgeStyle=orthogonalEdgeStyle;rounded=0;orthogonalLoop=1;jettySize=auto;html=1;exitX=1;exitY=0.5;exitDx=0;exitDy=0;entryX=0;entryY=0.5;entryDx=0;entryDy=0;" parent="1" source="pE6p8I3EJ8BsJt--rB1M-11" target="pE6p8I3EJ8BsJt--rB1M-3" edge="1"><mxGeometry relative="1" as="geometry"/></mxCell><mxCell id="pE6p8I3EJ8BsJt--rB1M-11" value="CsvFileParser" style="html=1;" parent="1" vertex="1"><mxGeometry x="120" y="280" width="110" height="50" as="geometry"/></mxCell><mxCell id="pE6p8I3EJ8BsJt--rB1M-18" style="edgeStyle=orthogonalEdgeStyle;rounded=0;orthogonalLoop=1;jettySize=auto;html=1;exitX=1;exitY=0.5;exitDx=0;exitDy=0;entryX=0;entryY=0.5;entryDx=0;entryDy=0;" parent="1" source="pE6p8I3EJ8BsJt--rB1M-12" target="pE6p8I3EJ8BsJt--rB1M-3" edge="1"><mxGeometry relative="1" as="geometry"/></mxCell><mxCell id="pE6p8I3EJ8BsJt--rB1M-12" value="ExcelFileParser" style="html=1;" parent="1" vertex="1"><mxGeometry x="120" y="405" width="110" height="50" as="geometry"/></mxCell><mxCell id="pE6p8I3EJ8BsJt--rB1M-19" style="edgeStyle=orthogonalEdgeStyle;rounded=0;orthogonalLoop=1;jettySize=auto;html=1;exitX=1;exitY=0.5;exitDx=0;exitDy=0;entryX=0;entryY=0.5;entryDx=0;entryDy=0;" parent="1" source="pE6p8I3EJ8BsJt--rB1M-13" target="pE6p8I3EJ8BsJt--rB1M-3" edge="1"><mxGeometry relative="1" as="geometry"/></mxCell><mxCell id="pE6p8I3EJ8BsJt--rB1M-13" value="JsonFileParser" style="html=1;" parent="1" vertex="1"><mxGeometry x="120" y="530" width="110" height="50" as="geometry"/></mxCell></root></mxGraphModel></diagram><diagram id="JpV1nHibllUekSm3HVLZ" name="Import Handler Abstraction"><mxGraphModel dx="2062" dy="1182" grid="1" gridSize="10" guides="1" tooltips="1" connect="1" arrows="1" fold="1" page="0" pageScale="1" pageWidth="850" pageHeight="1100" math="0" shadow="0"><root><mxCell id="tgX-NIkQ0PeGyxWz5Z-B-0"/><mxCell id="tgX-NIkQ0PeGyxWz5Z-B-1" parent="tgX-NIkQ0PeGyxWz5Z-B-0"/><mxCell id="tgX-NIkQ0PeGyxWz5Z-B-2" value="«interface»&lt;br&gt;&lt;b&gt;ImportHandler&lt;/b&gt;" style="html=1;" vertex="1" parent="tgX-NIkQ0PeGyxWz5Z-B-1"><mxGeometry x="380" y="190" width="110" height="50" as="geometry"/></mxCell><mxCell id="tgX-NIkQ0PeGyxWz5Z-B-13" style="edgeStyle=orthogonalEdgeStyle;rounded=0;orthogonalLoop=1;jettySize=auto;html=1;exitX=0.5;exitY=0;exitDx=0;exitDy=0;entryX=0.5;entryY=1;entryDx=0;entryDy=0;" edge="1" parent="tgX-NIkQ0PeGyxWz5Z-B-1" source="tgX-NIkQ0PeGyxWz5Z-B-12" target="tgX-NIkQ0PeGyxWz5Z-B-2"><mxGeometry relative="1" as="geometry"/></mxCell><mxCell id="tgX-NIkQ0PeGyxWz5Z-B-12" value="CsvImportHandler" style="rounded=0;whiteSpace=wrap;html=1;" vertex="1" parent="tgX-NIkQ0PeGyxWz5Z-B-1"><mxGeometry x="170" y="400" width="120" height="60" as="geometry"/></mxCell><mxCell id="tgX-NIkQ0PeGyxWz5Z-B-15" style="edgeStyle=orthogonalEdgeStyle;rounded=0;orthogonalLoop=1;jettySize=auto;html=1;exitX=0.5;exitY=0;exitDx=0;exitDy=0;entryX=0.5;entryY=1;entryDx=0;entryDy=0;" edge="1" parent="tgX-NIkQ0PeGyxWz5Z-B-1" source="tgX-NIkQ0PeGyxWz5Z-B-14" target="tgX-NIkQ0PeGyxWz5Z-B-2"><mxGeometry relative="1" as="geometry"/></mxCell><mxCell id="tgX-NIkQ0PeGyxWz5Z-B-14" value="ExcelImportHandler" style="rounded=0;whiteSpace=wrap;html=1;" vertex="1" parent="tgX-NIkQ0PeGyxWz5Z-B-1"><mxGeometry x="375" y="400" width="120" height="60" as="geometry"/></mxCell><mxCell id="tgX-NIkQ0PeGyxWz5Z-B-17" style="edgeStyle=orthogonalEdgeStyle;rounded=0;orthogonalLoop=1;jettySize=auto;html=1;exitX=0.5;exitY=0;exitDx=0;exitDy=0;entryX=0.5;entryY=1;entryDx=0;entryDy=0;" edge="1" parent="tgX-NIkQ0PeGyxWz5Z-B-1" source="tgX-NIkQ0PeGyxWz5Z-B-16" target="tgX-NIkQ0PeGyxWz5Z-B-2"><mxGeometry relative="1" as="geometry"/></mxCell><mxCell id="tgX-NIkQ0PeGyxWz5Z-B-16" value="JsonImportHandler" style="rounded=0;whiteSpace=wrap;html=1;" vertex="1" parent="tgX-NIkQ0PeGyxWz5Z-B-1"><mxGeometry x="590" y="400" width="120" height="60" as="geometry"/></mxCell><mxCell id="tgX-NIkQ0PeGyxWz5Z-B-18" value="CensusImportHandler" style="rounded=0;whiteSpace=wrap;html=1;" vertex="1" parent="tgX-NIkQ0PeGyxWz5Z-B-1"><mxGeometry x="375" y="690" width="120" height="60" as="geometry"/></mxCell></root></mxGraphModel></diagram><diagram id="QE3uI9VlHtbt8ZUOks_Y" name="PDF Import"><mxGraphModel dx="2463" dy="2296" grid="1" gridSize="10" guides="1" tooltips="1" connect="1" arrows="1" fold="1" page="0" pageScale="1" pageWidth="850" pageHeight="1100" math="0" shadow="0"><root><mxCell id="2Ppd3vcC5FQOyThBvx8v-0"/><mxCell id="2Ppd3vcC5FQOyThBvx8v-1" parent="2Ppd3vcC5FQOyThBvx8v-0"/><mxCell id="2Ppd3vcC5FQOyThBvx8v-4" style="edgeStyle=orthogonalEdgeStyle;rounded=0;orthogonalLoop=1;jettySize=auto;html=1;exitX=1;exitY=0.5;exitDx=0;exitDy=0;" parent="2Ppd3vcC5FQOyThBvx8v-1" source="2Ppd3vcC5FQOyThBvx8v-2" target="2Ppd3vcC5FQOyThBvx8v-3" edge="1"><mxGeometry relative="1" as="geometry"/></mxCell><mxCell id="2Ppd3vcC5FQOyThBvx8v-6" style="edgeStyle=orthogonalEdgeStyle;rounded=0;orthogonalLoop=1;jettySize=auto;html=1;exitX=1;exitY=0.5;exitDx=0;exitDy=0;entryX=0;entryY=0.5;entryDx=0;entryDy=0;" parent="2Ppd3vcC5FQOyThBvx8v-1" source="2Ppd3vcC5FQOyThBvx8v-2" target="2Ppd3vcC5FQOyThBvx8v-5" edge="1"><mxGeometry relative="1" as="geometry"/></mxCell><mxCell id="2Ppd3vcC5FQOyThBvx8v-2" value="PDDocument" style="rounded=0;whiteSpace=wrap;html=1;" parent="2Ppd3vcC5FQOyThBvx8v-1" vertex="1"><mxGeometry y="330" width="120" height="60" as="geometry"/></mxCell><mxCell id="2Ppd3vcC5FQOyThBvx8v-3" value="PDAcroForm" style="rounded=0;whiteSpace=wrap;html=1;" parent="2Ppd3vcC5FQOyThBvx8v-1" vertex="1"><mxGeometry x="360" y="330" width="120" height="60" as="geometry"/></mxCell><mxCell id="2Ppd3vcC5FQOyThBvx8v-5" value="PDResources" style="rounded=0;whiteSpace=wrap;html=1;" parent="2Ppd3vcC5FQOyThBvx8v-1" vertex="1"><mxGeometry x="360" y="460" width="120" height="60" as="geometry"/></mxCell><mxCell id="2Ppd3vcC5FQOyThBvx8v-8" style="edgeStyle=orthogonalEdgeStyle;rounded=0;orthogonalLoop=1;jettySize=auto;html=1;exitX=0.5;exitY=1;exitDx=0;exitDy=0;" parent="2Ppd3vcC5FQOyThBvx8v-1" source="2Ppd3vcC5FQOyThBvx8v-7" target="2Ppd3vcC5FQOyThBvx8v-2" edge="1"><mxGeometry relative="1" as="geometry"/></mxCell><mxCell id="2Ppd3vcC5FQOyThBvx8v-7" value="PDFFile" style="rounded=0;whiteSpace=wrap;html=1;" parent="2Ppd3vcC5FQOyThBvx8v-1" vertex="1"><mxGeometry y="70" width="120" height="60" as="geometry"/></mxCell><mxCell id="2Ppd3vcC5FQOyThBvx8v-9" value="PDFFile" style="swimlane;fontStyle=1;align=center;verticalAlign=top;childLayout=stackLayout;horizontal=1;startSize=26;horizontalStack=0;resizeParent=1;resizeParentMax=0;resizeLast=0;collapsible=1;marginBottom=0;" parent="2Ppd3vcC5FQOyThBvx8v-1" vertex="1"><mxGeometry x="370" width="290" height="220" as="geometry"/></mxCell><mxCell id="2Ppd3vcC5FQOyThBvx8v-10" value="+ pdDocument: PDDocument&#10;+ fileLoader: FileLoader&#10;+ pdfFilePath: Path" style="text;strokeColor=none;fillColor=none;align=left;verticalAlign=top;spacingLeft=4;spacingRight=4;overflow=hidden;rotatable=0;points=[[0,0.5],[1,0.5]];portConstraint=eastwest;" parent="2Ppd3vcC5FQOyThBvx8v-9" vertex="1"><mxGeometry y="26" width="290" height="84" as="geometry"/></mxCell><mxCell id="2Ppd3vcC5FQOyThBvx8v-11" value="" style="line;strokeWidth=1;fillColor=none;align=left;verticalAlign=middle;spacingTop=-1;spacingLeft=3;spacingRight=3;rotatable=0;labelPosition=right;points=[];portConstraint=eastwest;" parent="2Ppd3vcC5FQOyThBvx8v-9" vertex="1"><mxGeometry y="110" width="290" height="8" as="geometry"/></mxCell><mxCell id="2Ppd3vcC5FQOyThBvx8v-12" value="+ load(): void&#10;+ getPdDocument(): PDDocument" style="text;strokeColor=none;fillColor=none;align=left;verticalAlign=top;spacingLeft=4;spacingRight=4;overflow=hidden;rotatable=0;points=[[0,0.5],[1,0.5]];portConstraint=eastwest;" parent="2Ppd3vcC5FQOyThBvx8v-9" vertex="1"><mxGeometry y="118" width="290" height="102" as="geometry"/></mxCell><mxCell id="khlqzjcwCunEyB48MctN-0" value="" style="rounded=0;whiteSpace=wrap;html=1;" parent="2Ppd3vcC5FQOyThBvx8v-1" vertex="1"><mxGeometry x="-80" y="-540" width="840" height="460" as="geometry"/></mxCell><mxCell id="khlqzjcwCunEyB48MctN-1" value="AppUtility.domains.pdf" style="rounded=0;whiteSpace=wrap;html=1;fillColor=#6a00ff;strokeColor=#3700CC;fontColor=#ffffff;fontStyle=1" parent="2Ppd3vcC5FQOyThBvx8v-1" vertex="1"><mxGeometry x="-80" y="-570" width="840" height="30" as="geometry"/></mxCell><mxCell id="khlqzjcwCunEyB48MctN-4" style="edgeStyle=orthogonalEdgeStyle;rounded=0;orthogonalLoop=1;jettySize=auto;html=1;exitX=1;exitY=0.5;exitDx=0;exitDy=0;entryX=0;entryY=0.5;entryDx=0;entryDy=0;" parent="2Ppd3vcC5FQOyThBvx8v-1" source="khlqzjcwCunEyB48MctN-2" target="khlqzjcwCunEyB48MctN-3" edge="1"><mxGeometry relative="1" as="geometry"/></mxCell><mxCell id="khlqzjcwCunEyB48MctN-2" value="PdfFile" style="rounded=0;whiteSpace=wrap;html=1;fillColor=#6d8764;strokeColor=#3A5431;fontColor=#ffffff;" parent="2Ppd3vcC5FQOyThBvx8v-1" vertex="1"><mxGeometry x="-30" y="-500" width="120" height="60" as="geometry"/></mxCell><mxCell id="khlqzjcwCunEyB48MctN-3" value="PdfForm" style="rounded=0;whiteSpace=wrap;html=1;" parent="2Ppd3vcC5FQOyThBvx8v-1" vertex="1"><mxGeometry x="270" y="-500" width="120" height="60" as="geometry"/></mxCell><mxCell id="khlqzjcwCunEyB48MctN-7" value="" style="rounded=0;whiteSpace=wrap;html=1;" parent="2Ppd3vcC5FQOyThBvx8v-1" vertex="1"><mxGeometry x="900" y="-540" width="840" height="460" as="geometry"/></mxCell><mxCell id="khlqzjcwCunEyB48MctN-8" value="AppUtility.usecases.filewriter" style="rounded=0;whiteSpace=wrap;html=1;fillColor=#6a00ff;strokeColor=#3700CC;fontColor=#ffffff;fontStyle=1" parent="2Ppd3vcC5FQOyThBvx8v-1" vertex="1"><mxGeometry x="900" y="-570" width="840" height="30" as="geometry"/></mxCell><mxCell id="khlqzjcwCunEyB48MctN-9" value="PdfFileWriter" style="rounded=0;whiteSpace=wrap;html=1;fillColor=#6d8764;strokeColor=#3A5431;fontColor=#ffffff;" parent="2Ppd3vcC5FQOyThBvx8v-1" vertex="1"><mxGeometry x="940" y="-520" width="120" height="60" as="geometry"/></mxCell><mxCell id="khlqzjcwCunEyB48MctN-10" value="" style="rounded=0;whiteSpace=wrap;html=1;" parent="2Ppd3vcC5FQOyThBvx8v-1" vertex="1"><mxGeometry x="-80" y="-1110" width="840" height="460" as="geometry"/></mxCell><mxCell id="khlqzjcwCunEyB48MctN-11" value="AppUtility.usecases.imports" style="rounded=0;whiteSpace=wrap;html=1;fillColor=#6a00ff;strokeColor=#3700CC;fontColor=#ffffff;fontStyle=1" parent="2Ppd3vcC5FQOyThBvx8v-1" vertex="1"><mxGeometry x="-80" y="-1140" width="840" height="30" as="geometry"/></mxCell><mxCell id="khlqzjcwCunEyB48MctN-12" value="PdfFileImportHandler" style="rounded=0;whiteSpace=wrap;html=1;fillColor=#6d8764;strokeColor=#3A5431;fontColor=#ffffff;" parent="2Ppd3vcC5FQOyThBvx8v-1" vertex="1"><mxGeometry x="-40" y="-1080" width="120" height="60" as="geometry"/></mxCell></root></mxGraphModel></diagram></mxfile>